name rise30.2954peak35.7071fall66.7804.mot
datacolumns 19
datarows 15
range 8.83330700000000 8.85663300000000
endheader
time	ground_force1_vx	ground_force1_vy	ground_force1_vz	ground_force1_px	ground_force1_py	ground_force1_pz	ground_force2_vx	ground_force2_vy	ground_force2_vz	ground_force2_px	ground_force2_py	ground_force2_pz	ground_torque1_x	ground_torque1_y	ground_torque1_z	ground_torque2_x	ground_torque2_y	ground_torque2_z	
8.83330700000000	-44.79559400000000	838.31918199999996	51.29805900000000	0.13174900000000	0.00000000000000	0.11456300000000	0.00000000000000	0.00000000000000	0.00000000000000	0.00000000000000	0.00000000000000	0.00000000000000	0.00000000000000	23.48301700000000	0.00000000000000	0.00000000000000	0.00000000000000	0.00000000000000	
8.83496600000000	-45.54509700000000	836.79502200000002	51.24166600000000	0.13080900000000	0.00000000000000	0.11451500000000	0.00000000000000	0.00000000000000	0.00000000000000	0.00000000000000	0.00000000000000	0.00000000000000	0.00000000000000	23.47558800000000	0.00000000000000	0.00000000000000	0.00000000000000	0.00000000000000	
8.83663900000000	-46.31115800000000	835.17090399999995	51.17047200000000	0.12988100000000	0.00000000000000	0.11446300000000	-1.68305900000000	3.82659800000000	1.51127800000000	0.00000000000000	0.00000000000000	0.00000000000000	0.00000000000000	23.47006500000000	0.00000000000000	0.00000000000000	0.48992300000000	0.00000000000000	
8.83830100000000	-47.09384900000000	833.44557899999995	51.08413900000000	0.12896500000000	0.00000000000000	0.11440900000000	-2.74081800000000	7.14698900000000	2.58900400000000	0.00000000000000	0.00000000000000	0.00000000000000	0.00000000000000	23.46649300000000	0.00000000000000	0.00000000000000	0.85079200000000	0.00000000000000	
8.83996700000000	-47.89318900000000	831.61771599999997	50.98234800000000	0.12806200000000	0.00000000000000	0.11435100000000	-3.94775400000000	11.12751600000000	3.84446800000000	0.00000000000000	0.00000000000000	0.00000000000000	0.00000000000000	23.46490500000000	0.00000000000000	0.00000000000000	1.27323300000000	0.00000000000000	
8.84164000000000	-48.70914300000000	829.68589899999995	50.86479200000000	0.12717100000000	0.00000000000000	0.11428900000000	-5.27054400000000	15.71711200000000	5.25057600000000	0.00000000000000	0.00000000000000	0.00000000000000	0.00000000000000	23.46531500000000	0.00000000000000	0.00000000000000	1.74872400000000	0.00000000000000	
8.84330200000000	-49.54161400000000	827.64862300000004	50.73118400000000	0.12629300000000	0.00000000000000	0.11422500000000	-6.66672400000000	20.83457500000000	6.77057000000000	0.00000000000000	0.00000000000000	0.00000000000000	0.00000000000000	23.46772400000000	0.00000000000000	0.00000000000000	2.26548500000000	0.00000000000000	
8.84496800000000	-50.39044600000000	825.50429299999996	50.58124900000000	0.12542800000000	0.00000000000000	0.11415600000000	-8.08750200000000	26.37455600000000	8.36048800000000	0.32402800000000	0.00000000000000	-0.05462200000000	0.00000000000000	23.47211700000000	0.00000000000000	0.00000000000000	5.07653600000000	0.00000000000000	
8.84663400000000	-51.25541600000000	823.25121999999999	50.41473300000000	0.12457400000000	0.00000000000000	0.11408500000000	-9.48135000000000	32.21622400000000	9.97245800000000	0.33103400000000	0.00000000000000	-0.05495600000000	0.00000000000000	23.47846200000000	0.00000000000000	0.00000000000000	6.14457500000000	0.00000000000000	
8.84830800000000	-52.13623700000000	820.88762499999996	50.23139700000000	0.12373300000000	0.00000000000000	0.11401000000000	-10.79793300000000	38.23346900000000	11.55841200000000	0.33748100000000	0.00000000000000	-0.05528200000000	0.00000000000000	23.48671200000000	0.00000000000000	0.00000000000000	7.21892000000000	0.00000000000000	
8.84997200000000	-53.03254700000000	818.41163700000004	50.03102200000000	0.12290400000000	0.00000000000000	0.11393200000000	-11.99181200000000	44.30519800000000	13.07368100000000	0.34342500000000	0.00000000000000	-0.05560100000000	0.00000000000000	23.49680100000000	0.00000000000000	0.00000000000000	8.26958900000000	0.00000000000000	
8.85164100000000	-53.94391400000000	815.82129099999997	49.81340500000000	0.12208600000000	0.00000000000000	0.11385100000000	-13.02547700000000	50.32435800000000	14.48003600000000	0.34891100000000	0.00000000000000	-0.05591700000000	0.00000000000000	23.50864900000000	0.00000000000000	0.00000000000000	9.26979900000000	0.00000000000000	
8.85330100000000	-54.86983000000000	813.11453700000004	49.57836400000000	0.12127900000000	0.00000000000000	0.11376700000000	-13.87138400000000	56.20475100000000	15.74784700000000	0.35398200000000	0.00000000000000	-0.05623000000000	0.00000000000000	23.52215500000000	0.00000000000000	0.00000000000000	10.19763900000000	0.00000000000000	
8.85497100000000	-55.80970800000000	810.28923499999996	49.32573400000000	0.12048300000000	0.00000000000000	0.11368000000000	-14.51290900000000	61.88517200000000	16.85724200000000	0.35867000000000	0.00000000000000	-0.05654200000000	0.00000000000000	23.53720600000000	0.00000000000000	0.00000000000000	11.03710700000000	0.00000000000000	
8.85663300000000	-56.76288200000000	807.34316400000000	49.05537200000000	0.11969600000000	0.00000000000000	0.11358900000000	-14.94426500000000	67.33085600000000	17.79828400000000	0.36300800000000	0.00000000000000	-0.05685500000000	0.00000000000000	23.55366700000000	0.00000000000000	0.00000000000000	11.77851000000000	0.00000000000000	
